<svg class="diagram-root" style="background: #f5f6f6" xmlns="http://www.w3.org/2000/svg" xmlns:xlink="http://www.w3.org/1999/xlink"><style>.diagram-root { font-family: "Helvetica Neue", sans-serif; font-size: 12px; } .t { overflow: visible; } .t-bg { y: 40; fill: #fff;   } .th { fill: #005aa0;   } .tht { fill: #fff; font-size: 14px;  } .tf { fill: #323c46; overflow: visible; } .tf.pk { fill: #005aa0; font-weight: bold; } .tf.fk { font-weight: bold; } .ty { fill: #adb1b5; font-weight: normal; text-anchor: end; } .r { fill: transparent; stroke: #c3c3c3; stroke-width: 1; } .l { stroke: 1; } .i { fill: #c2c7ce; stroke: #c2c7ce; } .i.ix { fill: #afb3b6; stroke: #000; } .fa { fill: transparent; overflow: visible; } .fa .bg.hover { fill: #f7f7f7; } .c { cy: 12; r: 4; stroke: #d2d2dc; fill: #d2d2dc; } .hr { fill: transparent; stroke: #323c46; stroke-opacity: 0.035; stroke-width: 13; } .dc { stroke: #fa5a3c; fill: #fa5a3c; } .x { stroke: white; stroke-width: 1; } .hl .th { fill: #1b9bff; } .hl .tht {  } .fhl .bg { fill: #e7f4ff; } .fhls .bg {  } .r.hl { stroke: #1b9bff; } .dim { opacity: 0.25; }</style><g class="drawing-wrapper" transform="translate(2, 18) scale(1,1)"><g class="rs"><path d="M 183.39 449 m -1, 0 a 1,1 0 1,0 2,0 a 1,1 0 1,0 -2,0 M 183.39 449 m -0.5, 0 a 0.5,0.5 0 1,0 1,0 a 0.5,0.5 0 1,0 -1,0  M183.39 449 L183.39 449 195.39 449 M189.39 455 L189.39 455 189.39 443 M195.39 449 Q 279.54 449, 363.7 447.5 T 532 446 M 544 446 m -1, 0 a 1,1 0 1,0 2,0 a 1,1 0 1,0 -2,0 M 544 446 m -0.5, 0 a 0.5,0.5 0 1,0 1,0 a 0.5,0.5 0 1,0 -1,0  M544 446 L544 446 532 446 M538 452 L538 452 538 440" id="h1139284389" class="r"></path><path d="M 183.39 474 m -1, 0 a 1,1 0 1,0 2,0 a 1,1 0 1,0 -2,0 M 183.39 474 m -0.5, 0 a 0.5,0.5 0 1,0 1,0 a 0.5,0.5 0 1,0 -1,0  M183.39 474 L183.39 474 195.39 474 M189.39 480 L189.39 480 189.39 468 M195.39 474 C 245.39 474, 247.79 87, 191.39 87 M 179.39 87 m -1, 0 a 1,1 0 1,0 2,0 a 1,1 0 1,0 -2,0 M 179.39 87 m -0.5, 0 a 0.5,0.5 0 1,0 1,0 a 0.5,0.5 0 1,0 -1,0  M179.39 87 L179.39 87 191.39 87 M185.39 93 L185.39 93 185.39 81" id="h1607168654" class="r"></path><path d="M 372 87 m -1, 0 a 1,1 0 1,0 2,0 a 1,1 0 1,0 -2,0 M 372 87 m -0.5, 0 a 0.5,0.5 0 1,0 1,0 a 0.5,0.5 0 1,0 -1,0  M372 87 L372 87 360 87 M366 93 L366 93 366 81 M360 87 Q 317.85 87, 275.7 87 T 191.39 87 M 179.39 87 m -1, 0 a 1,1 0 1,0 2,0 a 1,1 0 1,0 -2,0 M 179.39 87 m -0.5, 0 a 0.5,0.5 0 1,0 1,0 a 0.5,0.5 0 1,0 -1,0  M179.39 87 L179.39 87 191.39 87 M185.39 93 L185.39 93 185.39 81" id="h1397587031" class="r"></path><path d="M 372 112 m -1, 0 a 1,1 0 1,0 2,0 a 1,1 0 1,0 -2,0 M 372 112 m -0.5, 0 a 0.5,0.5 0 1,0 1,0 a 0.5,0.5 0 1,0 -1,0  M372 112 L372 112 360 112 M366 118 L366 118 366 106 M360 112 C 310 112, 206.8 446, 532 446 M 544 446 m -1, 0 a 1,1 0 1,0 2,0 a 1,1 0 1,0 -2,0 M 544 446 m -0.5, 0 a 0.5,0.5 0 1,0 1,0 a 0.5,0.5 0 1,0 -1,0  M544 446 L544 446 532 446 M538 452 L538 452 538 440" id="h2286254435" class="r"></path><path d="M 686.04 471 m -1, 0 a 1,1 0 1,0 2,0 a 1,1 0 1,0 -2,0 M 686.04 471 m -0.5, 0 a 0.5,0.5 0 1,0 1,0 a 0.5,0.5 0 1,0 -1,0  M686.04 471 L686.04 471 698.04 471 M692.04 477 L692.04 477 692.04 465 M698.04 471 Q 728.78 471, 759.52 366.5 T 821 262 M 833 262 m -1, 0 a 1,1 0 1,0 2,0 a 1,1 0 1,0 -2,0 M 833 262 m -0.5, 0 a 0.5,0.5 0 1,0 1,0 a 0.5,0.5 0 1,0 -1,0  M833 262 L833 262 821 262 M827 268 L827 268 827 256" id="h3552945350" class="r"></path><path d="M 699.04 122 m -1, 0 a 1,1 0 1,0 2,0 a 1,1 0 1,0 -2,0 M 699.04 122 m -0.5, 0 a 0.5,0.5 0 1,0 1,0 a 0.5,0.5 0 1,0 -1,0  M699.04 122 L699.04 122 711.04 122 M705.04 128 L705.04 128 705.04 116 M711.04 122 C 761.04 122, 768.8399999999999 446, 698.04 446 M 686.04 446 m -1, 0 a 1,1 0 1,0 2,0 a 1,1 0 1,0 -2,0 M 686.04 446 m -0.5, 0 a 0.5,0.5 0 1,0 1,0 a 0.5,0.5 0 1,0 -1,0  M686.04 446 L686.04 446 698.04 446 M692.04 452 L692.04 452 692.04 440" id="h3572724878" class="r"></path></g><g class="hrs"></g><g class="ts"><svg width="149.39" height="100" x="30" y="30" id="h475896179" class="t"><rect height="40" width="149.39" class="th"></rect><text x="13" y="25" class="tht">departments</text><rect height="60" width="149.39" class="t-bg" y="40"></rect><text x="13" y="61" class="tf pk">dept_no<tspan x="136.39" class="ty">varchar</tspan></text><path d="M7,14A2,2 0 0,1 5,12A2,2 0 0,1 7,10A2,2 0 0,1 9,12A2,2 0 0,1 7,14M12.65,10C11.83,7.67 9.61,6 7, 6A6, 6 0 0, 0 1, 12A6, 6 0 0, 0 7, 18C9.61, 18 11.83, 16.33 12.65, 14H17V18H21V14H23V10H12.65Z" class="i pk" transform="translate(76.37632812499999, 48) scale(0.65)"></path><text x="13" y="86" class="tf">dept_name<tspan x="136.39" class="ty">varchar</tspan></text></svg><svg width="129.39" height="100" x="372" y="30" id="h1676682957" class="t"><rect height="40" width="129.39" class="th"></rect><text x="13" y="25" class="tht">dept_manager</text><rect height="60" width="129.39" class="t-bg" y="40"></rect><text x="13" y="61" class="tf fk">dept_no<tspan x="116.38999999999999" class="ty">varchar</tspan></text><text x="13" y="86" class="tf fk">emp_no<tspan x="116.38999999999999" class="ty">int</tspan></text></svg><svg width="102.04" height="100" x="597" y="65" id="h52730927" class="t"><rect height="40" width="102.04" class="th"></rect><text x="13" y="25" class="tht">salary</text><rect height="60" width="102.04" class="t-bg" y="40"></rect><text x="13" y="61" class="tf fk">emp_no<tspan x="89.04" class="ty">int</tspan></text><text x="13" y="86" class="tf">salary<tspan x="89.04" class="ty">int</tspan></text></svg><svg width="140.7" height="100" x="833" y="205" id="h1006881043" class="t"><rect height="40" width="140.7" class="th"></rect><text x="13" y="25" class="tht">title</text><rect height="60" width="140.7" class="t-bg" y="40"></rect><text x="13" y="61" class="tf pk">title_id<tspan x="127.69999999999999" class="ty">varchar</tspan></text><path d="M7,14A2,2 0 0,1 5,12A2,2 0 0,1 7,10A2,2 0 0,1 9,12A2,2 0 0,1 7,14M12.65,10C11.83,7.67 9.61,6 7, 6A6, 6 0 0, 0 1, 12A6, 6 0 0, 0 7, 18C9.61, 18 11.83, 16.33 12.65, 14H17V18H21V14H23V10H12.65Z" class="i pk" transform="translate(67.68632812499999, 48) scale(0.65)"></path><text x="13" y="86" class="tf">title<tspan x="127.69999999999999" class="ty">varchar</tspan></text></svg><svg width="129.39" height="100" x="54" y="392" id="h1090417462" class="t"><rect height="40" width="129.39" class="th"></rect><text x="13" y="25" class="tht">dept_emp</text><rect height="60" width="129.39" class="t-bg" y="40"></rect><text x="13" y="61" class="tf fk">emp_no<tspan x="116.38999999999999" class="ty">int</tspan></text><text x="13" y="86" class="tf fk">dept_no<tspan x="116.38999999999999" class="ty">varchar</tspan></text></svg><svg width="142.04" height="225" x="544" y="389" id="h1639608377" class="t"><rect height="40" width="142.04" class="th"></rect><text x="13" y="25" class="tht">employees</text><rect height="185" width="142.04" class="t-bg" y="40"></rect><text x="13" y="61" class="tf pk">emp_no<tspan x="129.04" class="ty">int</tspan></text><path d="M7,14A2,2 0 0,1 5,12A2,2 0 0,1 7,10A2,2 0 0,1 9,12A2,2 0 0,1 7,14M12.65,10C11.83,7.67 9.61,6 7, 6A6, 6 0 0, 0 1, 12A6, 6 0 0, 0 7, 18C9.61, 18 11.83, 16.33 12.65, 14H17V18H21V14H23V10H12.65Z" class="i pk" transform="translate(96.36617187499999, 48) scale(0.65)"></path><text x="13" y="86" class="tf fk">emp_title<tspan x="129.04" class="ty">varchar</tspan></text><text x="13" y="111" class="tf">birth_date<tspan x="129.04" class="ty">date</tspan></text><text x="13" y="136" class="tf">first_name<tspan x="129.04" class="ty">varchar</tspan></text><text x="13" y="161" class="tf">last_name<tspan x="129.04" class="ty">varchar</tspan></text><text x="13" y="186" class="tf">sex<tspan x="129.04" class="ty">varchar</tspan></text><text x="13" y="211" class="tf">hire_date<tspan x="129.04" class="ty">date</tspan></text></svg></g></g><text class="qdbd-link" x="10" y="20">www.quickdatabasediagrams.com</text></svg>